# AST/ASF file generated using VICON BodyLanguage
# -----------------------------------------------
:version 1.10
:name VICON
:units
  mass 1.0
  length 0.45
  angle deg
:documentation
   .ast/.asf automatically generated from VICON data using
   VICON BodyBuilder and BodyLanguage model FoxedUp or BRILLIANT.MOD
:root
   order TX TY TZ RX RY RZ
   axis XYZ
   position 0 0 0  
   orientation 0 0 0 
:bonedata
  begin
     id 1 
     name lhipjoint
     direction 0.577973 -0.728611 0.367523 
     length 2.48544 
     axis 0 0 0  XYZ
  end
  begin
     id 2 
     name lfemur
     direction 0.34202 -0.939693 0  
     length 7.1921  
     axis 0 0 20  XYZ
    dof rx ry rz
    limits (-160.0 20.0)
           (-70.0 70.0)
           (-60.0 70.0)
  end
  begin
     id 3 
     name ltibia
     direction 0.34202 -0.939693 0   
     length 7.71059   
     axis 0 0 20   XYZ
    dof rx
    limits (-10.0 170.0)
  end
  begin
     id 4 
     name lfoot
     direction 0.089538 -0.246004 0.965124   
     length 2.19909   
     axis -90 7.62852e-016 20   XYZ
    dof rx rz
    limits (-45.0 90.0)
           (-70.0 20.0)
  end
  begin
     id 5 
     name ltoes
     direction 1.53544e-011 -4.21829e-011 1   
     length 1.10116   
     axis -90 7.62852e-016 20   XYZ
    dof rx
    limits (-90.0 20.0)
  end
  begin
     id 6 
     name rhipjoint
     direction -0.554414 -0.743062 0.374812   
     length 2.4371  
     axis 0 0 0  XYZ 
  end
  begin
     id 7 
     name rfemur
     direction -0.34202 -0.939693 0   
     length 7.47254   
     axis 0 0 -20   XYZ
    dof rx ry rz
    limits (-160.0 20.0)
           (-70.0 70.0)
           (-70.0 60.0)
  end
  begin
     id 8 
     name rtibia
     direction -0.34202 -0.939693 0   
     length 7.65855   
     axis 0 0 -20   XYZ
    dof rx
    limits (-10.0 170.0)
 end
 begin
     id 9 
     name rfoot
     direction -0.133779 -0.367555 0.92033   
     length 2.43006  
     axis -90 -7.62852e-016 -20   XYZ
    dof rx rz
    limits (-45.0 90.0)
           (-20.0 70.0)
  end
  begin
     id 10 
     name rtoes
     direction -1.53563e-011 -4.21889e-011 1   
     length 1.19625   
     axis -90 -7.62852e-016 -20   XYZ
    dof rx
    limits (-90.0 20.0)
  end
  begin
     id 11 
     name lowerback
     direction 0.0249066 0.998043 -0.0573585   
     length 2.08485   
     axis 0 0 0   XYZ
    dof rx ry rz
    limits (-20.0 45.0)
           (-30.0 30.0)
           (-30.0 30.0)
  end
  begin
     id 12 
     name upperback
     direction 0.0237884 0.999673 0.00943178   
     length 2.08515   
     axis 0 0 0   XYZ
    dof rx ry rz
    limits (-20.0 45.0)
           (-30.0 30.0)
           (-30.0 30.0)
  end
  begin
     id 13 
     name thorax
     direction 0.0106671 0.999301 0.0358174   
     length 2.09037   
     axis 0 0 0   XYZ
    dof rx ry rz
    limits (-20.0 45.0)
           (-30.0 30.0)
           (-30.0 30.0)
  end
  begin
     id 14 
     name lowerneck
     direction -0.0580016 0.987052 0.149546   
     length 1.84454   
     axis 0 0 0   XYZ
    dof rx ry rz
    limits (-20.0 45.0)
           (-30.0 30.0)
           (-30.0 30.0)
  end
  begin
     id 15 
     name upperneck
     direction 0.079456 0.981963 -0.171567   
     length 1.88141   
     axis 0 0 0   XYZ
    dof rx ry rz
    limits (-20.0 45.0)
           (-30.0 30.0)
           (-30.0 30.0)
  end
  begin
     id 16
     name head
     direction 0.0262167 0.9967 -0.0768276  
     length 1.89541  
     axis 0 0 0   XYZ
    dof rx ry rz
    limits (-20.0 45.0)
           (-30.0 30.0)
           (-30.0 30.0)
  end
  begin
     id 17 
     name lclavicle
     direction 0.946135 0.322134 -0.0325326  
     length 3.949  
     axis 0 0 0   XYZ
    dof ry rz
    limits (-20.0 10.0)
           (0.0 20.0)
  end
  begin
     id 18 
     name lhumerus
     direction 1 -4.48964e-011 1.94005e-028   
     length 5.10995   
     axis 180 -30 -90   XYZ
    dof rx ry rz
    limits (-60.0 90.0)
           (-90.0 90.0)
           (-90.0 90.0)
  end
  begin
     id 19
     name lradius
     direction 1 -4.48976e-011 2.87852e-027   
     length 3.21207   
     axis 180 -30 -90   XYZ
    dof rx
    limits (-10.0 170.0)
  end
  begin
     id 20
     name lwrist
     direction 1 -4.48963e-011 1.9975e-027   
     length 1.60604   
     axis 2.96054e-016 90 90   XYZ
    dof ry
    limits (-180.0 0.0)
 end
  begin
     id 21 
     name lhand
     direction 1 -4.48919e-011 4.00227e-027   
     length 0.63349   
     axis -2.5488e-015 90 90   XYZ
    dof rx rz
    limits (-90.0 90.0)
           (-45.0 45.0)
  end
  begin
     id 22 
     name lfingers
     direction 1 -4.49037e-011 7.9652e-027   
     length 0.510736   
     axis -5.0975e-015 90 90   XYZ
    dof rx
    limits (0.0 90.0)
  end
  begin
     id 23
     name lthumb
     direction 0.707107 -6.34922e-011 0.707107   
     length 0.733318   
     axis -90 45 -4.48553e-014   XYZ
    dof rx rz
    limits (-45.0 45.0)
           (-45.0 45.0)
  end
  begin
     id 24 
     name rclavicle
     direction -0.940085 0.328911 -0.0897654   
     length 3.93848  
     axis 0 0 0   XYZ 
    dof ry rz
    limits (-10.0 20.0)
           (-20.0 0.0)
  end
  begin
     id 25 
     name rhumerus
     direction -1 -4.48958e-011 3.02044e-027  
     length 5.25109   
     axis 180 30 90   XYZ
    dof rx ry rz
    limits (-90.0 60.0)
           (-90.0 90.0)
           (-90.0 90.0)
  end
  begin
     id 26 
     name rradius
     direction -1 -4.4897e-011 9.78352e-028   
     length 3.28364   
     axis 180 30 90   XYZ
    dof rx
    limits (-10.0 170.0)
  end
  begin
     id 27 
     name rwrist
     direction -1 -4.48943e-011 1.99918e-027   
     length 1.64182   
     axis 2.96054e-016 -90 -90   XYZ
    dof ry
    limits (-180.0 0.0)
  end
  begin
     id 28
     name rhand
     direction -1 -4.49024e-011 3.98478e-027   
     length 0.599745   
     axis -2.5488e-015 -90 -90   XYZ
    dof rx rz
    limits (-90.0 90.0)
           (-45.0 45.0)
  end
  begin
     id 29
     name rfingers
     direction -1 -4.48914e-011 8.00621e-027   
     length 0.48353   
     axis -5.0975e-015 -90 -90   XYZ
    dof rx
    limits (0.0 90.0)
  end
  begin
     id 30
     name rthumb
     direction -0.707107 -6.34992e-011 0.707107   
     length 0.694255   
     axis -90 -45 4.48553e-014   XYZ
    dof rx rz
    limits (-45.0 45.0)
           (-45.0 45.0)
  end
:hierarchy
  begin
    root lhipjoint rhipjoint lowerback
    lhipjoint lfemur
    lfemur ltibia
    ltibia lfoot
    lfoot ltoes
    rhipjoint rfemur
    rfemur rtibia
    rtibia rfoot
    rfoot rtoes
    lowerback upperback
    upperback thorax
    thorax lowerneck lclavicle rclavicle
    lowerneck upperneck
    upperneck head
    lclavicle lhumerus
    lhumerus lradius
    lradius lwrist
    lwrist lhand lthumb
    lhand lfingers
    rclavicle rhumerus
    rhumerus rradius
    rradius rwrist
    rwrist rhand rthumb
    rhand rfingers
  end

#!OML:ASF E:\CV Data\Top Level 1\Subject 1\Session 1\player.ASF
:FULLY-SPECIFIED
:DEGREES
353
root 0.270294 16.4921 1.82473 13.2553 -6.50957 -4.83471
lowerback 20.9819 5.77807 8.71882
upperback 2.79973 9.85623 4.25467
thorax -7.87461 4.4911 -2.85321
lowerneck -10.5316 -9.50253 -12.6099
upperneck -8.33881 -11.0845 11.0535
head 0.530304 -5.2275 4.85976
rclavicle -1.08139e-013 -7.95139e-015
rhumerus -36.4432 59.527 -119.964
rradius 69.6876
rwrist -9.57088
rhand -27.2244 7.4223
rfingers 7.12502
rthumb -0.636781 -22.5565
lclavicle -1.08139e-013 -7.95139e-015
lhumerus -41.3879 -11.683 98.413
lradius 84.4165
lwrist 23.1437
lhand -19.3194 27.7179
lfingers 7.12502
lthumb 6.99685 57.5823
rfemur -8.30626 -9.00713 20.4078
rtibia 38.7711
rfoot -33.1029 -17.3814
rtoes -18.9827
lfemur -51.8079 -6.8718 0.833779
ltibia 28.6595
lfoot 17.4991 -6.31332
ltoes -10.6916
354
root 0.221956 16.5194 1.72061 13.0506 -6.76287 -4.94987
lowerback 20.7633 5.8242 8.71054
upperback 2.80545 9.88648 4.22155
thorax -7.74306 4.51537 -2.86412
lowerneck -10.6071 -9.54445 -12.6576
upperneck -8.16296 -11.133 11.1604
head 0.609755 -5.24845 4.88659
rclavicle -7.4743e-014 9.54166e-015
rhumerus -36.736 58.9148 -120.061
rradius 69.9189
rwrist -9.87105
rhand -27.6643 7.28819
rfingers 7.12502
rthumb -1.06173 -22.6889
lclavicle -7.4743e-014 9.54166e-015
lhumerus -41.5068 -11.4283 98.8882
lradius 84.6961
lwrist 22.5114
lhand -20.2108 28.437
lfingers 7.12502
lthumb 6.13629 58.3282
rfemur -8.62618 -8.73505 20.8076
rtibia 39.0011
rfoot -32.9317 -17.6019
rtoes -18.4257
lfemur -51.3503 -6.88325 1.18636
ltibia 27.6933
lfoot 19.3223 -5.39642
ltoes -9.85824
355
root 0.175169 16.5498 1.6158 12.8605 -6.98596 -5.00514
lowerback 20.5368 5.86102 8.6785
upperback 2.81309 9.89834 4.18516
thorax -7.61026 4.53173 -2.86034
lowerneck -10.7048 -9.58942 -12.7304
upperneck -7.96828 -11.1815 11.2624
head 0.699101 -5.26809 4.91429
rclavicle 1.66979e-014 -1.11319e-014
rhumerus -36.8909 58.3506 -119.993
rradius 70.1248
rwrist -9.99881
rhand -27.9867 7.31282
rfingers 7.12502
rthumb -1.37311 -22.6625
lclavicle 1.66979e-014 -1.11319e-014
lhumerus -41.6067 -11.2386 99.3408
lradius 84.9952
lwrist 22.1613
lhand -21.0049 29.1299
lfingers 7.12502
lthumb 5.3696 59.0419
rfemur -8.98268 -8.42529 21.1373
rtibia 39.2646
rfoot -32.6989 -17.7893
rtoes -17.9311
lfemur -50.9222 -6.86022 1.41753
ltibia 26.6722
lfoot 21.3247 -4.36643
ltoes -8.77803
356
root 0.129977 16.5823 1.51091 12.6732 -7.17687 -5.0183
lowerback 20.3088 5.88724 8.63839
upperback 2.82484 9.8947 4.15245
thorax -7.47561 4.54112 -2.84422
lowerneck -10.8249 -9.63197 -12.8342
upperneck -7.74851 -11.2222 11.361
head 0.799777 -5.28235 4.94462
rclavicle -1.54257e-013 -1.59028e-014
rhumerus -36.9485 57.8787 -119.803
rradius 70.2914
rwrist -9.89093
rhand -28.2527 7.42301
rfingers 7.12502
rthumb -1.63001 -22.5505
lclavicle -1.54257e-013 -1.59028e-014
lhumerus -41.6907 -11.1282 99.777
lradius 85.3155
lwrist 22.1157
lhand -21.7042 29.7265
lfingers 7.12502
lthumb 4.69439 59.6545
rfemur -9.3502 -8.09809 21.4102
rtibia 39.5467
rfoot -32.4259 -17.9277
rtoes -17.4767
lfemur -50.5216 -6.79576 1.53767
ltibia 25.6315
lfoot 23.4485 -3.16514
ltoes -7.29027
357
root 0.0868548 16.6155 1.40652 12.4791 -7.33689 -5.00405
lowerback 20.0853 5.90234 8.60682
upperback 2.84054 9.87935 4.12632
thorax -7.33993 4.54471 -2.82318
lowerneck -10.9271 -9.66734 -12.9294
upperneck -7.54693 -11.2561 11.4205
head 0.888196 -5.29395 4.96384
rclavicle 4.6118e-014 -7.95139e-015
rhumerus -36.9451 57.532 -119.533
rradius 70.402
rwrist -9.50992
rhand -28.53 7.53388
rfingers 7.12502
rthumb -1.89777 -22.4374
lclavicle 4.6118e-014 -7.95139e-015
lhumerus -41.7619 -11.1096 100.205
lradius 85.6513
lwrist 22.3538
lhand -22.3282 30.1978
lfingers 7.12502
lthumb 4.09183 60.1382
rfemur -9.70776 -7.78702 21.6353
rtibia 39.8309
rfoot -32.1293 -18.0085
rtoes -17.0554
lfemur -50.1507 -6.6889 1.55531
ltibia 24.6209
lfoot 25.6029 -1.76293
ltoes -5.27884
358
root 0.0457979 16.6482 1.30314 12.2713 -7.48031 -4.97778
lowerback 19.8656 5.91017 8.58756
upperback 2.86323 9.8579 4.11142
thorax -7.1992 4.54544 -2.79535
lowerneck -11.0046 -9.69064 -13.0283
upperneck -7.35952 -11.276 11.4586
head 0.965681 -5.29923 4.97985
rclavicle 6.36111e-014 -9.54166e-015
rhumerus -36.9109 57.3377 -119.218
rradius 70.4485
rwrist -8.88011
rhand -28.8618 7.59771
rfingers 7.12502
rthumb -2.2182 -22.3705
lclavicle 6.36111e-014 -9.54166e-015
lhumerus -41.8229 -11.1814 100.628
lradius 85.992
lwrist 22.8081
lhand -22.8845 30.503
lfingers 7.12502
lthumb 3.55459 60.4531
rfemur -10.0361 -7.51367 21.8236
rtibia 40.1006
rfoot -31.8319 -18.0249
rtoes -16.6437
lfemur -49.8059 -6.5379 1.48802
ltibia 23.6998
lfoot 27.663 -0.16677
ltoes -2.71612
359
root 0.0068612 16.6789 1.20147 12.0486 -7.59395 -4.94549
lowerback 19.6401 5.90812 8.59118
upperback 2.88836 9.82834 4.10597
thorax -7.05142 4.54213 -2.76699
lowerneck -11.0321 -9.70096 -13.0976
upperneck -7.20501 -11.2866 11.4545
head 1.0201 -5.30224 4.98254
rclavicle -2.14687e-014 4.77083e-015
rhumerus -36.8597 57.2726 -118.877
rradius 70.4425
rwrist -8.06626
rhand -29.2451 7.57411
rfingers 7.12502
rthumb -2.58844 -22.3899
lclavicle -2.14687e-014 4.77083e-015
lhumerus -41.8781 -11.3574 101.052
lradius 86.3197
lwrist 23.3709
lhand -23.3662 30.6314
lfingers 7.12502
lthumb 3.08941 60.5888
rfemur -10.3225 -7.31817 21.9864
rtibia 40.3422
rfoot -31.5573 -17.9847
rtoes -16.2233
lfemur -49.4957 -6.33865 1.32981
ltibia 22.9292
lfoot 29.4894 1.48724
ltoes 0.260135
360
root -0.0297815 16.7068 1.10223 11.8063 -7.68203 -4.91004
lowerback 19.4053 5.89559 8.61575
upperback 2.91758 9.78874 4.11063
thorax -6.89347 4.53417 -2.73552
lowerneck -11.0316 -9.69941 -13.1589
upperneck -7.04901 -11.2859 11.4356
head 1.06794 -5.30078 4.98164
rclavicle -1.82882e-014 -4.29375e-014
rhumerus -36.8099 57.3179 -118.522
rradius 70.4017
rwrist -7.16076
rhand -29.6691 7.48061
rfingers 7.12502
rthumb -2.99785 -22.4781
lclavicle -1.82882e-014 -4.29375e-014
lhumerus -41.9309 -11.6347 101.483
lradius 86.6219
lwrist 23.9039
lhand -23.7985 30.6459
lfingers 7.12502
lthumb 2.67192 60.6089
rfemur -10.5554 -7.21652 22.1263
rtibia 40.5487
rfoot -31.3223 -17.8977
rtoes -15.7902
lfemur -49.2129 -6.09049 1.08013
ltibia 22.3584
lfoot 30.9689 3.03578
ltoes 3.39179
361
root -0.0641468 16.7315 1.00553 11.5452 -7.74163 -4.8735
lowerback 19.16 5.873 8.66166
upperback 2.94652 9.73964 4.12278
thorax -6.72891 4.52152 -2.70436
lowerneck -11.002 -9.68985 -13.1957
upperneck -6.88115 -11.2817 11.3949
head 1.11163 -5.29921 4.97162
rclavicle -7.63333e-014 -1.59028e-014
rhumerus -36.765 57.4425 -118.159
rradius 70.3522
rwrist -6.3312
rhand -30.0792 7.35992
rfingers 7.12502
rthumb -3.3939 -22.5928
lclavicle -7.63333e-014 -1.59028e-014
lhumerus -41.9853 -12.0158 101.922
lradius 86.8766
lwrist 24.2668
lhand -24.14 30.6035
lfingers 7.12502
lthumb 2.34212 60.5704
rfemur -10.7336 -7.21498 22.2504
rtibia 40.7178
rfoot -31.1393 -17.7788
rtoes -15.3219
lfemur -48.9524 -5.77277 0.722316
ltibia 22.0216
lfoot 32.0339 4.2773
ltoes 6.30169
362
root -0.0964447 16.7526 0.910233 11.2735 -7.75814 -4.83877
lowerback 18.9117 5.83479 8.7296
upperback 2.96887 9.67507 4.14035
thorax -6.56884 4.50049 -2.67634
lowerneck -10.9793 -9.6755 -13.2163
upperneck -6.67243 -11.2742 11.3501
head 1.16704 -5.29635 4.95679
rclavicle -3.57812e-014 -4.6118e-014
rhumerus -36.7175 57.6138 -117.78
rradius 70.3329
rwrist -5.73474
rhand -30.4137 7.25796
rfingers 7.12502
rthumb -3.71696 -22.6894
lclavicle -3.57812e-014 -4.6118e-014
lhumerus -42.0372 -12.497 102.365
lradius 87.0659
lwrist 24.3591
lhand -24.3946 30.5563
lfingers 7.12502
lthumb 2.0963 60.5258
rfemur -10.8738 -7.30809 22.3738
rtibia 40.8561
rfoot -31.0032 -17.6541
rtoes -14.8191
lfemur -48.72 -5.35864 0.238462
ltibia 21.9275
lfoot 32.6608 5.00878
ltoes 8.64485
363
root -0.12659 16.7703 0.816282 10.9793 -7.73715 -4.81032
lowerback 18.6833 5.77982 8.82018
upperback 2.98685 9.59577 4.16354
thorax -6.42303 4.47079 -2.65453
lowerneck -10.9811 -9.6617 -13.2226
upperneck -6.4066 -11.2689 11.3056
head 1.24273 -5.29441 4.93708
rclavicle -2.14687e-014 -2.70347e-014
rhumerus -36.659 57.8218 -117.378
rradius 70.3653
rwrist -5.51717
rhand -30.6489 7.21945
rfingers 7.12502
rthumb -3.94414 -22.7238
lclavicle -2.14687e-014 -2.70347e-014
lhumerus -42.0863 -13.064 102.806
lradius 87.1812
lwrist 24.1256
lhand -24.5576 30.5272
lfingers 7.12502
lthumb 1.93883 60.4981
rfemur -10.9692 -7.46734 22.502
rtibia 40.9744
rfoot -30.903 -17.5469
rtoes -14.2993
lfemur -48.4894 -4.86147 -0.355355
ltibia 22.0614
lfoot 32.834 5.13851
ltoes 10.1988
364
root -0.154972 16.785 0.722845 10.6629 -7.68124 -4.79438
lowerback 18.493 5.7076 8.93061
upperback 2.99749 9.50278 4.19186
thorax -6.30488 4.43207 -2.64071
lowerneck -11.0196 -9.65038 -13.2194
upperneck -6.07815 -11.2666 11.2711
head 1.3433 -5.29322 4.91549
rclavicle 3.65764e-014 -3.97569e-014
rhumerus -36.5738 58.0519 -116.942
rradius 70.4594
rwrist -5.73059
rhand -30.7848 7.26347
rfingers 7.12502
rthumb -4.0753 -22.6773
lclavicle 3.65764e-014 -3.97569e-014
lhumerus -42.1315 -13.7 103.233
lradius 87.2194
lwrist 23.579
lhand -24.6292 30.5099
lfingers 7.12502
lthumb 1.86969 60.4815
rfemur -11.0329 -7.66025 22.6476
rtibia 41.0905
rfoot -30.8281 -17.4776
rtoes -13.7671
lfemur -48.2468 -4.31956 -1.00953
ltibia 22.3856
lfoot 32.55 4.68697
ltoes 10.9821
365
root -0.181513 16.7971 0.629547 10.317 -7.60955 -4.79406
lowerback 18.3679 5.62187 9.05627
upperback 3.00251 9.40291 4.22301
thorax -6.22685 4.3869 -2.63928
lowerneck -11.1034 -9.64104 -13.1869
upperneck -5.70575 -11.267 11.2323
head 1.46238 -5.29269 4.88504
rclavicle -9.54166e-015 2.8625e-014
rhumerus -36.4391 58.2891 -116.455
rradius 70.6148
rwrist -6.34556
rhand -30.8233 7.3983
rfingers 7.12502
rthumb -4.11256 -22.5417
lclavicle -9.54166e-015 2.8625e-014
lhumerus -42.1609 -14.3812 103.635
lradius 87.1787
lwrist 22.7819
lhand -24.5924 30.4689
lfingers 7.12502
lthumb 1.90519 60.4401
rfemur -11.0692 -7.84788 22.8114
rtibia 41.2227
rfoot -30.763 -17.4583
rtoes -13.2435
lfemur -47.9647 -3.797 -1.65617
ltibia 22.8483
lfoot 31.8136 3.73281
ltoes 11.0838
366
root -0.206649 16.8072 0.536064 9.95713 -7.56659 -4.80959
lowerback 18.3033 5.53827 9.16997
upperback 3.00215 9.31108 4.25649
thorax -6.18916 4.3431 -2.63858
lowerneck -11.2379 -9.63201 -13.1452
upperneck -5.29139 -11.2649 11.2081
head 1.60216 -5.28944 4.85487
rclavicle 6.12257e-014 3.18055e-014
rhumerus -36.2417 58.5263 -115.904
rradius 70.8075
rwrist -7.23087
rhand -30.803 7.61063
rfingers 7.12502
rthumb -4.09288 -22.3298
lclavicle 6.12257e-014 3.18055e-014
lhumerus -42.1695 -15.07 103.996
lradius 87.075
lwrist 21.8347
lhand -24.4493 30.373
lfingers 7.12502
lthumb 2.04346 60.3429
rfemur -11.1087 -7.97802 22.9909
rtibia 41.3881
rfoot -30.6925 -17.4919
rtoes -12.7498
lfemur -47.6289 -3.35019 -2.21463
ltibia 23.3919
lfoot 30.6352 2.44454
ltoes 10.6756
367
root -0.23071 16.8159 0.441886 9.5982 -7.554 -4.82657
lowerback 18.2907 5.45896 9.25179
upperback 2.9951 9.22538 4.28665
thorax -6.19089 4.30026 -2.63249
lowerneck -11.4118 -9.62398 -13.0884
upperneck -4.8658 -11.2622 11.1997
head 1.75179 -5.28454 4.82563
rclavicle 4.77083e-015 -4.29375e-014
rhumerus -35.9553 58.7477 -115.271
rradius 71.0111
rwrist -8.20921
rhand -30.7751 7.86261
rfingers 7.12502
rthumb -4.06595 -22.0783
lclavicle 4.77083e-015 -4.29375e-014
lhumerus -42.1351 -15.7442 104.303
lradius 86.915
lwrist 20.8557
lhand -24.1963 30.1549
lfingers 7.12502
lthumb 2.28773 60.1224
rfemur -11.1771 -8.04495 23.1766
rtibia 41.5986
rfoot -30.6117 -17.5779
rtoes -12.288
lfemur -47.2451 -3.00737 -2.66889
ltibia 23.9664
lfoot 29.0418 0.931356
ltoes 9.93772
